<?xml version="1.0" encoding="UTF-8" standalone="no"?>
<!-- Generator: Adobe Illustrator 16.0.0, SVG Export Plug-In . SVG Version: 6.00 Build 0)  -->

<svg
   version="1.1"
   id="Layer_1"
   x="0px"
   y="0px"
   width="1000"
   height="489.60028"
   viewBox="0 0 1000 489.60027"
   enable-background="new 0 0 1000 344.846"
   xml:space="preserve"
   sodipodi:docname="Twitch_Prime.svg"
   inkscape:version="1.3.2 (091e20e, 2023-11-25, custom)"
   xmlns:inkscape="http://www.inkscape.org/namespaces/inkscape"
   xmlns:sodipodi="http://sodipodi.sourceforge.net/DTD/sodipodi-0.dtd"
   xmlns="http://www.w3.org/2000/svg"
   xmlns:svg="http://www.w3.org/2000/svg"><defs
   id="defs11">
	
	
	
	
	
	
	
	
	
	
	
</defs><sodipodi:namedview
   id="namedview11"
   pagecolor="#505050"
   bordercolor="#eeeeee"
   borderopacity="1"
   inkscape:showpageshadow="0"
   inkscape:pageopacity="0"
   inkscape:pagecheckerboard="0"
   inkscape:deskcolor="#d1d1d1"
   inkscape:zoom="0.25956646"
   inkscape:cx="394.88923"
   inkscape:cy="-213.81807"
   inkscape:window-width="1920"
   inkscape:window-height="991"
   inkscape:window-x="-9"
   inkscape:window-y="-9"
   inkscape:window-maximized="1"
   inkscape:current-layer="Layer_1" />

<g
   id="g9"
   transform="matrix(0.96994236,0,0,0.96994236,-1307.6443,-277.24793)"><path
     style="font-variation-settings:normal;vector-effect:none;fill:#8652f6;fill-opacity:1;fill-rule:nonzero;stroke:none;stroke-width:0.937732;stroke-linecap:square;stroke-linejoin:bevel;stroke-miterlimit:4;stroke-dasharray:none;stroke-dashoffset:0;stroke-opacity:1;-inkscape-stroke:none;stop-color:#000000"
     inkscape:connector-curvature="0"
     id="path260-3"
     d="m 2210.4487,519.67235 h 74.9811 v -93.53873 h 18.7452 v 93.53873 h 74.9811 V 388.72752 l -37.4906,-37.41551 h -56.2357 v -65.47242 h -74.9811 v 233.83276 0 m -328.0373,-37.41549 37.4811,37.41549 h 103.1037 v -74.83098 h -65.6037 v -18.70775 h 65.6037 v -74.82161 h -65.6037 v -65.47242 h -74.9811 v 196.41727 0 m 159.33,0 37.4906,37.41549 h 112.4715 v -74.83098 h -74.9811 v -18.70775 h 74.9811 V 351.31201 H 2079.232 l -37.4906,37.41551 v 93.52934 0 M 1788.6851,285.83959 h 74.9811 v 46.76468 h -74.9811 v -46.76468 m -299.9241,65.47242 h -65.613 v -65.47242 h -74.981 v 196.41727 l 37.4904,37.41549 h 103.1036 v -74.83098 h -65.613 v -18.70775 h 65.613 v -74.82161 m 18.7453,130.94485 37.4811,37.41549 H 1769.94 V 351.31201 h -74.9811 v 93.52936 h -18.7546 v -93.52936 h -74.9717 v 93.52936 h -18.7453 v -93.52936 h -74.981 v 130.94485 0 m 281.1788,-130.94485 h 74.9811 v 168.36034 h -74.9811 V 351.31201" /><path
     id="path1-4"
     style="font-variation-settings:normal;opacity:1;vector-effect:none;fill:#8652f6;fill-opacity:1;stroke:none;stroke-width:0.937732;stroke-linecap:square;stroke-linejoin:bevel;stroke-miterlimit:4;stroke-dasharray:none;stroke-dashoffset:0;stroke-opacity:1;-inkscape-stroke:none;stop-color:#000000;stop-opacity:1"
     d="m 1806.0771,544.16406 c -5.8401,0.41147 -11.73,2.85319 -15.3732,7.57031 -3.5181,4.43792 -4.4091,10.43691 -3.7246,15.93164 0.518,4.89715 3.0321,9.58708 7.0059,12.53712 5.1849,4.01175 12.1397,4.89735 18.4942,4.16015 5.6466,-0.58536 11.1637,-3.38235 14.4921,-8.0664 2.568,-3.58316 3.5457,-8.09849 3.3829,-12.45313 0.076,-5.06001 -1.7262,-10.22988 -5.3829,-13.80079 -3.7043,-3.7007 -8.9072,-5.52989 -14.0566,-5.8789 z m -9.545,60.74024 c -0.9331,0.004 -1.8682,0.0676 -2.7793,0.25 h -0.012 c -1.2062,0.23512 -2.4437,0.77736 -3.1172,1.84765 -0.9099,1.3446 -0.9805,3.02847 -1.0332,4.59961 v 118.5625 c 0.014,1.87975 0.1524,3.99074 1.4884,5.44923 1.2479,1.385 3.2329,1.65811 5,1.6875 8.3883,-0.007 16.7717,0.004 25.1601,0 1.8467,-0.0441 4.0099,-0.31616 5.1856,-1.9375 1.1462,-1.62381 1.1227,-3.71296 1.0859,-5.6172 V 612.87696 c 0,-2.05854 0.1753,-4.32734 -1.0567,-6.11524 -1.205,-1.59809 -3.3894,-1.76561 -5.2324,-1.84766 -8.2329,-0.01 -16.4616,0.01 -24.6933,-0.01 z" /><path
     fill-rule="evenodd"
     clip-rule="evenodd"
     fill="#00b9f2"
     d="m 1565.8092,617.22945 c 13.7228,-12.83862 33.6616,-18.66891 52.1444,-15.22413 10.8866,1.8871 20.9785,7.80923 27.9574,16.37403 9.4269,11.17808 13.822,25.75195 15.0417,40.12621 1.1732,14.64001 0.2229,29.72454 -4.8971,43.60039 -4.3351,11.64098 -11.5467,22.57291 -21.9545,29.61187 -8.3444,5.83641 -18.6126,8.58684 -28.7449,8.4203 -12.8729,-0.11634 -26.0777,-4.08892 -35.9173,-12.6133 -0.047,19.17711 0,38.3579 -0.02,57.53135 -0.073,1.54176 -0.3686,3.30885 -1.6311,4.35955 -1.3459,1.02253 -3.1191,1.15479 -4.7466,1.19642 -8.3909,0 -16.7793,0 -25.1629,0 -1.8699,-0.0404 -4.0436,-0.34533 -5.2388,-1.95445 -0.9233,-1.12907 -0.7641,-2.72471 -1.0299,-4.05217 V 610.45011 c 0,-4.10728 2.339,-5.40168 6.2381,-5.53148 6.0164,-0.0245 12.0353,0.01 18.0554,-0.0135 1.5748,-0.006 3.2145,0.0796 4.6473,0.807 1.6642,0.82048 2.8129,2.45164 3.2917,4.21872 0.6711,2.42592 1.2993,4.86776 1.963,7.29857 z m 3.6371,19.36448 c -0.064,22.64884 0,45.29768 -0.033,67.94896 9.5004,5.84621 21.1499,8.24518 32.1664,6.39482 7.0989,-1.18908 13.3946,-5.97233 16.4732,-12.4737 4.4979,-9.3816 4.9657,-20.05392 4.8934,-30.27927 -0.1457,-6.76342 -0.7739,-13.58685 -2.7173,-20.09433 -1.3152,-4.29955 -3.3395,-8.4852 -6.521,-11.71935 -3.8011,-3.84032 -9.0791,-5.91723 -14.3975,-6.48789 -10.3405,-1.12295 -20.9209,1.47808 -29.8641,6.71076 z"
     id="path2-3"
     style="font-variation-settings:normal;opacity:1;vector-effect:none;fill:#8652f6;fill-opacity:1;stroke:none;stroke-width:0.937732;stroke-linecap:square;stroke-linejoin:bevel;stroke-miterlimit:4;stroke-dasharray:none;stroke-dashoffset:0;stroke-opacity:1;-inkscape-stroke:none;stop-color:#000000;stop-opacity:1" /><path
     fill-rule="evenodd"
     clip-rule="evenodd"
     fill="#00b9f2"
     d="m 1914.6448,606.29017 c 7.6733,-3.1521 15.905,-4.92654 24.1893,-5.20207 7.6109,-0.28533 15.4605,0.64781 22.3464,4.06197 5.4519,2.69778 10.0049,7.09529 13.0186,12.36839 8.4069,-5.41515 17.2411,-10.37475 26.8701,-13.23907 7.6304,-2.31203 15.6233,-3.37865 23.5893,-3.2317 6.9593,0.18614 14.0522,1.53441 20.1372,5.06614 5.9368,3.41171 10.627,8.8685 13.2378,15.18739 2.099,5.01226 3.0125,10.4568 3.1987,15.86827 0.012,31.42549 0,62.85098 0.012,94.27647 -0.043,1.73647 -0.4751,3.70684 -1.9667,4.79061 -1.276,0.90375 -2.9157,1.01641 -4.4244,1.06294 -8.3812,0 -16.7659,0 -25.1434,0 -1.6703,-0.0502 -3.528,-0.289 -4.7538,-1.54176 -1.3655,-1.34215 -1.5945,-3.36518 -1.6275,-5.17635 -0.014,-28.20971 0,-56.42187 -0.012,-84.63525 -0.2094,-4.1428 -1.1829,-8.55991 -4.1526,-11.63976 -2.7443,-2.95739 -6.8969,-4.08646 -10.8168,-4.15014 -10.0049,-0.17267 -19.9119,2.45163 -28.9138,6.70709 0,31.37896 0,62.76036 0,94.14299 -0.014,1.94588 -0.4189,4.25914 -2.2092,5.37107 -1.4781,0.87313 -3.2684,0.91354 -4.9388,0.92946 -8.0921,-0.0196 -16.1915,-0.006 -24.2837,-0.01 -1.6911,-0.0367 -3.5378,-0.26206 -4.8261,-1.46093 -1.2821,-1.23317 -1.6311,-3.09577 -1.6605,-4.80041 0,-28.08112 0,-56.1598 0,-84.24093 -0.1127,-4.39874 -1.0201,-9.10852 -4.1061,-12.43696 -2.6182,-2.8533 -6.5601,-4.01299 -10.3245,-4.18566 -10.3111,-0.31594 -20.5597,2.36959 -29.7613,6.93977 -0.012,31.44508 0,62.88037 0,94.32178 -0.043,1.82341 -0.5413,3.904 -2.1785,4.9498 -1.3557,0.81068 -2.9966,0.89273 -4.5347,0.91722 -8.2415,-0.011 -16.483,0 -24.7196,-0.004 -1.7671,-0.0331 -3.7705,-0.29267 -5.0025,-1.70095 -1.2687,-1.31889 -1.4389,-3.25252 -1.4781,-4.99022 -0.012,-39.667 0,-79.33399 -0.012,-118.99732 0.054,-1.76096 0.1702,-3.72398 1.4156,-5.0992 1.4316,-1.43522 3.604,-1.56748 5.518,-1.60544 6.281,0.0294 12.5668,-0.0331 18.8453,0.0294 2.6867,-0.01 5.3845,1.5785 6.2613,4.19301 0.9038,2.77737 1.6373,5.61353 2.5276,8.39703 6.5895,-4.26281 13.3933,-8.266 20.6784,-11.23319 z"
     id="path3-6"
     style="font-variation-settings:normal;opacity:1;vector-effect:none;fill:#8652f6;fill-opacity:1;stroke:none;stroke-width:0.937732;stroke-linecap:square;stroke-linejoin:bevel;stroke-miterlimit:4;stroke-dasharray:none;stroke-dashoffset:0;stroke-opacity:1;-inkscape-stroke:none;stop-color:#000000;stop-opacity:1" /><path
     fill-rule="evenodd"
     clip-rule="evenodd"
     fill="#00b9f2"
     d="m 2123.305,605.8983 c 9.1085,-3.61745 18.9886,-4.89592 28.7388,-4.86653 8.4913,0.10531 17.1075,1.18541 25.0208,4.41098 7.7664,3.09332 14.716,8.43132 19.3339,15.43721 3.833,5.79967 5.8401,12.68311 6.2185,19.59226 0.5315,7.80677 -0.6784,15.97481 -4.8176,22.72966 -4.0534,6.70342 -10.6968,11.45606 -17.8594,14.38039 -9.2212,3.75949 -19.22,5.0992 -29.1061,5.50086 -10.5401,0.32575 -21.21,-0.0771 -31.4843,-2.67818 0.747,7.85331 2.6537,16.05441 7.9256,22.1737 4.6338,5.398 11.6238,8.04924 18.4827,9.17587 8.4644,1.32868 17.1149,0.96253 25.5916,-0.12369 6.1327,-0.89273 12.1651,-2.3353 18.1643,-3.85257 1.8614,-0.54494 4.0792,-1.11315 5.8267,0.0563 1.6483,1.12295 1.8944,3.32844 1.9605,5.16288 -0.013,4.33505 0.026,8.67623 -0.013,13.01129 -0.1323,2.16263 -0.3454,4.71468 -2.2717,6.08623 -2.7039,1.95322 -6.0323,2.7039 -9.122,3.82317 -9.1819,2.95005 -18.7546,4.63141 -28.3762,5.09921 -8.8256,0.45187 -17.7456,0.004 -26.3887,-1.90302 -7.8534,-1.73157 -15.4667,-4.8102 -22.0341,-9.48447 -6.5173,-4.63753 -11.9521,-10.78009 -15.7691,-17.80925 -4.1293,-7.53736 -6.5075,-15.93807 -7.6243,-24.42939 -1.2699,-9.83348 -1.2197,-19.8384 0.095,-29.66085 1.8932,-14.2016 7.4651,-28.27707 17.6268,-38.60038 5.5535,-5.79355 12.4039,-10.32454 19.8812,-13.23172 z m 5.6283,29.09754 c -5.7177,6.14868 -7.9856,14.60939 -9.062,22.73211 8.2317,1.65075 16.6569,2.16875 25.0441,2.05976 4.7269,-0.17879 9.5469,-0.62087 13.9787,-2.38795 3.1889,-1.24909 6.0336,-3.56724 7.5411,-6.6875 1.5883,-3.30763 1.6948,-7.11856 1.216,-10.68947 -0.5376,-3.84032 -2.5716,-7.55696 -5.9062,-9.63019 -4.2261,-2.68064 -9.4208,-3.1766 -14.3082,-3.06271 -6.8283,0.0612 -13.8501,2.52389 -18.5035,7.66595 z"
     id="path4-7"
     style="font-variation-settings:normal;opacity:1;vector-effect:none;fill:#8652f6;fill-opacity:1;stroke:none;stroke-width:0.937732;stroke-linecap:square;stroke-linejoin:bevel;stroke-miterlimit:4;stroke-dasharray:none;stroke-dashoffset:0;stroke-opacity:1;-inkscape-stroke:none;stop-color:#000000;stop-opacity:1" /><path
     fill-rule="evenodd"
     clip-rule="evenodd"
     fill="#00b9f2"
     d="m 1745.3519,606.68571 c 5.3918,-2.19324 11.2454,-3.20965 17.0549,-3.02964 2.5251,0.0429 5.398,-0.35513 7.5275,1.30909 1.5173,1.32623 1.614,3.51825 1.69,5.38208 0.013,6.97651 0,13.95546 0.012,20.93441 -0.04,2.1859 -0.1825,4.94001 -2.252,6.22583 -2.8166,1.49523 -6.1389,0.80333 -9.1783,0.64658 -9.1257,-0.88293 -18.3077,0.47515 -27.1493,2.72105 -3.0235,0.78864 -5.9956,1.75484 -8.8697,2.98066 0,29.051 0,58.10691 0,87.16403 -0.017,1.75484 -0.3061,3.70072 -1.6507,4.95348 -1.232,1.07887 -2.9574,1.265 -4.5286,1.32868 -8.3811,0.004 -16.772,-0.007 -25.1531,0.004 -1.7769,-0.0269 -3.7877,-0.26329 -5.0735,-1.62871 -1.2956,-1.33113 -1.4977,-3.30518 -1.5173,-5.06859 0.014,-39.81395 0,-79.62422 0.012,-119.43695 0.064,-1.72422 0.3061,-3.66398 1.6409,-4.90326 1.3753,-1.12295 3.2256,-1.32256 4.9401,-1.35563 6.1523,0 12.301,0 18.4497,0 1.7132,-0.004 3.5109,0.31595 4.9057,1.37522 1.4487,1.04335 2.1822,2.7737 2.5777,4.45874 1.123,4.57753 2.1823,9.17465 3.3248,13.74972 6.6275,-7.18713 14.0522,-14.08648 23.2379,-17.81047 z"
     id="path5-4"
     style="font-variation-settings:normal;opacity:1;vector-effect:none;fill:#8652f6;fill-opacity:1;stroke:none;stroke-width:0.937732;stroke-linecap:square;stroke-linejoin:bevel;stroke-miterlimit:4;stroke-dasharray:none;stroke-dashoffset:0;stroke-opacity:1;-inkscape-stroke:none;stop-color:#000000;stop-opacity:1" /></g></svg>
